<svg width="420" height="420" viewBox="0 0 420 420" fill="none" xmlns="http://www.w3.org/2000/svg">
  <g opacity="0.94">
    <path d="M209.999 132C226.568 132 240 118.569 240 102C240 85.4315 226.568 72 209.999 72C193.431 72 180 85.4315 180 102C180 118.569 193.431 132 209.999 132Z" fill="#A6342E"/>
    <path d="M209.999 348C226.568 348 240 334.569 240 318C240 301.431 226.568 288 209.999 288C193.431 288 180 301.431 180 318C180 334.569 193.431 348 209.999 348Z" fill="#A6342E"/>
    <path d="M102 240C118.569 240 132 226.568 132 210C132 193.431 118.569 180 102 180C85.4315 180 72 193.431 72 210C72 226.568 85.4315 240 102 240Z" fill="#395A9A"/>
    <path d="M318 240C334.569 240 348 226.568 348 210C348 193.431 334.569 180 318 180C301.431 180 288 193.431 288 210C288 226.568 301.431 240 318 240Z" fill="#395A9A"/>
    <path d="M152.303 154.303C164.019 142.587 164.019 123.59 152.303 111.874C140.587 100.158 121.59 100.158 109.874 111.874C98.1577 123.59 98.1577 142.587 109.874 154.303C121.59 166.019 140.587 166.019 152.303 154.303Z" fill="#A6342E"/>
    <path d="M310.126 312.126C321.842 300.41 321.842 281.413 310.126 269.697C298.41 257.981 279.413 257.981 267.697 269.697C255.981 281.413 255.981 300.41 267.697 312.126C279.413 323.842 298.41 323.842 310.126 312.126Z" fill="#A6342E"/>
    <path d="M267.697 154.303C279.413 166.019 298.41 166.019 310.126 154.303C321.842 142.587 321.842 123.59 310.126 111.874C298.41 100.158 279.413 100.158 267.697 111.874C255.981 123.59 255.981 142.587 267.697 154.303Z" fill="#395A9A"/>
    <path d="M109.874 312.126C121.59 323.842 140.587 323.842 152.303 312.126C164.019 300.41 164.019 281.413 152.303 269.697C140.587 257.981 121.59 257.981 109.874 269.697C98.1577 281.413 98.1577 300.41 109.874 312.126Z" fill="#395A9A"/>
    <path d="M210 138L224.256 179.873L268.53 181.086L233.362 208L246.772 250.028L210 224.79L173.228 250.028L186.638 208L151.47 181.086L195.744 179.873L210 138Z" fill="#F6E8C9" stroke="#6D1F22" stroke-width="8" stroke-linejoin="round"/>
    <path d="M210 177V244" stroke="#6D1F22" stroke-width="8" stroke-linecap="round"/>
    <path d="M177 210H244" stroke="#6D1F22" stroke-width="8" stroke-linecap="round"/>
    <path d="M147 84C182 94 197 117 210 152" stroke="#6D1F22" stroke-width="8" stroke-linecap="round"/>
    <path d="M273 84C238 94 223 117 210 152" stroke="#6D1F22" stroke-width="8" stroke-linecap="round"/>
    <path d="M147 336C182 326 197 303 210 268" stroke="#6D1F22" stroke-width="8" stroke-linecap="round"/>
    <path d="M273 336C238 326 223 303 210 268" stroke="#6D1F22" stroke-width="8" stroke-linecap="round"/>
  </g>
</svg>
