<svg width="1600" height="180" viewBox="0 0 1600 180" fill="none" xmlns="http://www.w3.org/2000/svg">
  <rect width="1600" height="180" fill="#F7F1E8"/>
  <path d="M0 90H1600" stroke="#DCCFB8" stroke-width="4"/>
  <g opacity="0.95">
    <path d="M60 90C86 90 106 70 106 44C106 70 126 90 152 90C126 90 106 110 106 136C106 110 86 90 60 90Z" fill="#A6342E"/>
    <path d="M152 90C178 90 198 70 198 44C198 70 218 90 244 90C218 90 198 110 198 136C198 110 178 90 152 90Z" fill="#395A9A"/>
    <path d="M244 90C270 90 290 70 290 44C290 70 310 90 336 90C310 90 290 110 290 136C290 110 270 90 244 90Z" fill="#A6342E"/>
    <path d="M336 90C362 90 382 70 382 44C382 70 402 90 428 90C402 90 382 110 382 136C382 110 362 90 336 90Z" fill="#395A9A"/>
    <path d="M428 90C454 90 474 70 474 44C474 70 494 90 520 90C494 90 474 110 474 136C474 110 454 90 428 90Z" fill="#A6342E"/>
    <path d="M520 90C546 90 566 70 566 44C566 70 586 90 612 90C586 90 566 110 566 136C566 110 546 90 520 90Z" fill="#395A9A"/>
    <path d="M612 90C638 90 658 70 658 44C658 70 678 90 704 90C678 90 658 110 658 136C658 110 638 90 612 90Z" fill="#A6342E"/>
    <path d="M704 90C730 90 750 70 750 44C750 70 770 90 796 90C770 90 750 110 750 136C750 110 730 90 704 90Z" fill="#395A9A"/>
    <path d="M796 90C822 90 842 70 842 44C842 70 862 90 888 90C862 90 842 110 842 136C842 110 822 90 796 90Z" fill="#A6342E"/>
    <path d="M888 90C914 90 934 70 934 44C934 70 954 90 980 90C954 90 934 110 934 136C934 110 914 90 888 90Z" fill="#395A9A"/>
    <path d="M980 90C1006 90 1026 70 1026 44C1026 70 1046 90 1072 90C1046 90 1026 110 1026 136C1026 110 1006 90 980 90Z" fill="#A6342E"/>
    <path d="M1072 90C1098 90 1118 70 1118 44C1118 70 1138 90 1164 90C1138 90 1118 110 1118 136C1118 110 1098 90 1072 90Z" fill="#395A9A"/>
    <path d="M1164 90C1190 90 1210 70 1210 44C1210 70 1230 90 1256 90C1230 90 1210 110 1210 136C1210 110 1190 90 1164 90Z" fill="#A6342E"/>
    <path d="M1256 90C1282 90 1302 70 1302 44C1302 70 1322 90 1348 90C1322 90 1302 110 1302 136C1302 110 1282 90 1256 90Z" fill="#395A9A"/>
    <path d="M1348 90C1374 90 1394 70 1394 44C1394 70 1414 90 1440 90C1414 90 1394 110 1394 136C1394 110 1374 90 1348 90Z" fill="#A6342E"/>
    <path d="M1440 90C1466 90 1486 70 1486 44C1486 70 1506 90 1532 90C1506 90 1486 110 1486 136C1486 110 1466 90 1440 90Z" fill="#395A9A"/>
  </g>
</svg>
